{
  "accessors": [
    {
      "bufferView": 2,
      "componentType": 5126,
      "count": 8608,
      "max": [
        0.7921603322029114,
        0.3419654965400696,
        0.5497270822525024
      ],
      "min": [
        -0.785677433013916,
        -0.3625074625015259,
        -0.6319063901901245
      ],
      "type": "VEC3"
    },
    {
      "bufferView": 2,
      "byteOffset": 103296,
      "componentType": 5126,
      "count": 8608,
      "max": [
        0.9996272921562195,
        0.999884307384491,
        0.9999938607215881
      ],
      "min": [
        -0.99980229139328,
        -0.9998876452445984,
        -0.9999693036079407
      ],
      "type": "VEC3"
    },
    {
      "bufferView": 1,
      "componentType": 5126,
      "count": 8608,
      "max": [
        2.006319761276245,
        2.0625452995300293
      ],
      "min": [
        -1.0335800647735596,
        -1.0625455379486084
      ],
      "type": "VEC2"
    },
    {
      "bufferView": 0,
      "componentType": 5125,
      "count": 43584,
      "type": "SCALAR"
    },
    {
      "bufferView": 2,
      "byteOffset": 206592,
      "componentType": 5126,
      "count": 38017,
      "max": [
        1.5573363304138184,
        0.5689661502838135,
        0.47251373529434204
      ],
      "min": [
        -1.5573375225067139,
        -0.628753125667572,
        -0.5361388921737671
      ],
      "type": "VEC3"
    },
    {
      "bufferView": 2,
      "byteOffset": 662796,
      "componentType": 5126,
      "count": 38017,
      "max": [
        0.9998435974121094,
        0.9999082088470459,
        0.9999919533729553
      ],
      "min": [
        -0.9998435974121094,
        -0.9999898672103882,
        -0.9999755024909973
      ],
      "type": "VEC3"
    },
    {
      "bufferView": 1,
      "byteOffset": 68864,
      "componentType": 5126,
      "count": 38017,
      "max": [
        0.9770792126655579,
        0.8061892986297607
      ],
      "min": [
        0.023038536310195923,
        0.2761165499687195
      ],
      "type": "VEC2"
    },
    {
      "bufferView": 0,
      "byteOffset": 174336,
      "componentType": 5125,
      "count": 227280,
      "type": "SCALAR"
    },
    {
      "bufferView": 2,
      "byteOffset": 1119000,
      "componentType": 5126,
      "count": 1072,
      "max": [
        2.2170586585998535,
        1.170705795288086,
        0.6004492044448853
      ],
      "min": [
        -2.3687973022460938,
        -1.1784547567367554,
        -0.437683641910553
      ],
      "type": "VEC3"
    },
    {
      "bufferView": 2,
      "byteOffset": 1131864,
      "componentType": 5126,
      "count": 1072,
      "max": [
        0.9996203780174255,
        0.9981227517127991,
        0.9992085099220276
      ],
      "min": [
        -0.9958804845809937,
        -0.9971415996551514,
        -0.9987423419952393
      ],
      "type": "VEC3"
    },
    {
      "bufferView": 0,
      "byteOffset": 1083456,
      "componentType": 5125,
      "count": 6408,
      "type": "SCALAR"
    },
    {
      "bufferView": 2,
      "byteOffset": 1144728,
      "componentType": 5126,
      "count": 22498,
      "max": [
        1.1801693439483643,
        0.5582536458969116,
        0.48611095547676086
      ],
      "min": [
        -1.0716514587402344,
        -0.75807785987854,
        -0.5943668484687805
      ],
      "type": "VEC3"
    },
    {
      "bufferView": 2,
      "byteOffset": 1414704,
      "componentType": 5126,
      "count": 22498,
      "max": [
        0.9998023509979248,
        1.0,
        0.9999873042106628
      ],
      "min": [
        -0.9998794794082642,
        -0.9999467730522156,
        -0.9999977350234985
      ],
      "type": "VEC3"
    },
    {
      "bufferView": 1,
      "byteOffset": 373000,
      "componentType": 5126,
      "count": 22498,
      "max": [
        2.5572807788848877,
        2.5215632915496826
      ],
      "min": [
        -1.5572810173034668,
        -1.5355304479599
      ],
      "type": "VEC2"
    },
    {
      "bufferView": 0,
      "byteOffset": 1109088,
      "componentType": 5125,
      "count": 112248,
      "type": "SCALAR"
    },
    {
      "bufferView": 2,
      "byteOffset": 1684680,
      "componentType": 5126,
      "count": 1852,
      "max": [
        24.680320739746094,
        4.602046012878418,
        3.475226402282715
      ],
      "min": [
        -25.05411720275879,
        -4.4388108253479,
        -4.134456634521484
      ],
      "type": "VEC3"
    },
    {
      "bufferView": 2,
      "byteOffset": 1706904,
      "componentType": 5126,
      "count": 1852,
      "max": [
        0.9978368878364563,
        0.9999001026153564,
        0.9988653063774109
      ],
      "min": [
        -0.9953712821006775,
        -0.999760627746582,
        -0.9995407462120056
      ],
      "type": "VEC3"
    },
    {
      "bufferView": 1,
      "byteOffset": 552984,
      "componentType": 5126,
      "count": 1852,
      "max": [
        0.0,
        0.0
      ],
      "min": [
        0.0,
        0.0
      ],
      "type": "VEC2"
    },
    {
      "bufferView": 0,
      "byteOffset": 1558080,
      "componentType": 5125,
      "count": 11088,
      "type": "SCALAR"
    },
    {
      "bufferView": 2,
      "byteOffset": 1729128,
      "componentType": 5126,
      "count": 10854,
      "max": [
        3.615453004837036,
        0.5104315876960754,
        1.5322903394699097
      ],
      "min": [
        -3.615453004837036,
        -1.214115858078003,
        -0.6720952391624451
      ],
      "type": "VEC3"
    },
    {
      "bufferView": 2,
      "byteOffset": 1859376,
      "componentType": 5126,
      "count": 10854,
      "max": [
        0.9999933838844299,
        1.0,
        0.9982366561889648
      ],
      "min": [
        -0.9999933838844299,
        -1.0,
        -0.9991142749786377
      ],
      "type": "VEC3"
    },
    {
      "bufferView": 0,
      "byteOffset": 1602432,
      "componentType": 5125,
      "count": 65088,
      "type": "SCALAR"
    }
  ],
  "asset": {
    "extras": {
      "author": "iclartworks (https://sketchfab.com/iclartworks)",
      "license": "CC-BY-4.0 (http://creativecommons.org/licenses/by/4.0/)",
      "source": "https://sketchfab.com/3d-models/baby-yoda-grogu-with-glasses-c93731ce06154312bc7b4bf5c64d4e90",
      "title": "Baby Yoda Grogu with glasses"
    },
    "generator": "Sketchfab-15.37.0",
    "version": "2.0"
  },
  "bufferViews": [
    {
      "buffer": 0,
      "byteLength": 1862784,
      "name": "floatBufferViews",
      "target": 34963
    },
    {
      "buffer": 0,
      "byteLength": 567800,
      "byteOffset": 1862784,
      "byteStride": 8,
      "name": "floatBufferViews",
      "target": 34962
    },
    {
      "buffer": 0,
      "byteLength": 1989624,
      "byteOffset": 2430584,
      "byteStride": 12,
      "name": "floatBufferViews",
      "target": 34962
    }
  ],
  "buffers": [
    {
      "byteLength": 4420208,
      "uri": "scene.bin"
    }
  ],
  "extensionsUsed": [
    "KHR_materials_specular"
  ],
  "images": [
    {
      "uri": "textures/Material.004_baseColor.jpeg"
    },
    {
      "uri": "textures/Material.016_baseColor.png"
    },
    {
      "uri": "textures/Material_baseColor.png"
    }
  ],
  "materials": [
    {
      "doubleSided": true,
      "name": "Material.004",
      "pbrMetallicRoughness": {
        "baseColorTexture": {
          "index": 0
        },
        "metallicFactor": 0.0,
        "roughnessFactor": 0.618182
      }
    },
    {
      "doubleSided": true,
      "extensions": {
        "KHR_materials_specular": {
          "specularColorFactor": [
            1.0,
            1.0,
            1.0
          ],
          "specularFactor": 0.565335056259219
        }
      },
      "name": "Material.016",
      "pbrMetallicRoughness": {
        "baseColorTexture": {
          "index": 1
        },
        "metallicFactor": 0.08380977922980336,
        "roughnessFactor": 0.507874
      }
    },
    {
      "doubleSided": true,
      "name": "Material.001",
      "pbrMetallicRoughness": {
        "baseColorFactor": [
          0.0,
          0.0,
          0.0,
          1.0
        ],
        "metallicFactor": 0.0,
        "roughnessFactor": 0.208017
      }
    },
    {
      "doubleSided": true,
      "name": "Material",
      "pbrMetallicRoughness": {
        "baseColorTexture": {
          "index": 2
        },
        "metallicFactor": 0.0,
        "roughnessFactor": 0.556084
      }
    },
    {
      "name": "Material.003",
      "pbrMetallicRoughness": {
        "baseColorFactor": [
          0.0,
          0.0,
          0.0,
          1.0
        ],
        "metallicFactor": 0.0,
        "roughnessFactor": 0.01335
      }
    }
  ],
  "meshes": [
    {
      "name": "Object_0",
      "primitives": [
        {
          "attributes": {
            "NORMAL": 1,
            "POSITION": 0,
            "TEXCOORD_0": 2
          },
          "indices": 3,
          "material": 0,
          "mode": 4
        }
      ]
    },
    {
      "name": "Object_1",
      "primitives": [
        {
          "attributes": {
            "NORMAL": 5,
            "POSITION": 4,
            "TEXCOORD_0": 6
          },
          "indices": 7,
          "material": 1,
          "mode": 4
        }
      ]
    },
    {
      "name": "Object_2",
      "primitives": [
        {
          "attributes": {
            "NORMAL": 9,
            "POSITION": 8
          },
          "indices": 10,
          "material": 2,
          "mode": 4
        }
      ]
    },
    {
      "name": "Object_3",
      "primitives": [
        {
          "attributes": {
            "NORMAL": 12,
            "POSITION": 11,
            "TEXCOORD_0": 13
          },
          "indices": 14,
          "material": 0,
          "mode": 4
        }
      ]
    },
    {
      "name": "Object_4",
      "primitives": [
        {
          "attributes": {
            "NORMAL": 16,
            "POSITION": 15,
            "TEXCOORD_0": 17
          },
          "indices": 18,
          "material": 3,
          "mode": 4
        }
      ]
    },
    {
      "name": "Object_5",
      "primitives": [
        {
          "attributes": {
            "NORMAL": 20,
            "POSITION": 19
          },
          "indices": 21,
          "material": 4,
          "mode": 4
        }
      ]
    }
  ],
  "nodes": [
    {
      "children": [
        1
      ],
      "matrix": [
        1.0,
        0.0,
        0.0,
        0.0,
        0.0,
        2.220446049250313e-16,
        -1.0,
        0.0,
        0.0,
        1.0,
        2.220446049250313e-16,
        0.0,
        0.0,
        0.0,
        0.0,
        1.0
      ],
      "name": "Sketchfab_model"
    },
    {
      "children": [
        2
      ],
      "name": "root"
    },
    {
      "children": [
        3
      ],
      "matrix": [
        1.0,
        0.0,
        0.0,
        0.0,
        0.0,
        2.220446049250313e-16,
        1.0,
        0.0,
        0.0,
        -1.0,
        2.220446049250313e-16,
        0.0,
        0.0,
        0.0,
        0.0,
        1.0
      ],
      "name": "GLTF_SceneRootNode"
    },
    {
      "children": [
        4,
        5,
        7,
        9,
        11,
        13
      ],
      "matrix": [
        0.31054598093032837,
        0.0,
        0.0,
        0.0,
        0.0,
        0.29405245184898376,
        0.0,
        0.0,
        0.0,
        0.0,
        0.33082687854766846,
        0.0,
        0.32301095128059387,
        0.5690774321556091,
        0.42992162704467773,
        1.0
      ],
      "name": "Retopo_Circle_5"
    },
    {
      "mesh": 0,
      "name": "Object_4"
    },
    {
      "children": [
        6
      ],
      "matrix": [
        0.8643499465955173,
        0.0006075893427921819,
        0.09210863203073895,
        0.0,
        0.032653231281305414,
        0.9067159004698981,
        -0.3123999238489428,
        0.0,
        -0.08783021280216104,
        0.2864821850982956,
        0.8223113789940806,
        0.0,
        0.03420054912567139,
        0.5342504978179932,
        -0.04351770877838135,
        1.0
      ],
      "name": "Retopo_Cube_0"
    },
    {
      "mesh": 1,
      "name": "Object_6"
    },
    {
      "children": [
        8
      ],
      "matrix": [
        0.1960766394949883,
        0.00013782762898917577,
        0.02089471712199808,
        0.0,
        0.004286611030434025,
        0.11903072337610829,
        -0.04101084513593574,
        0.0,
        -0.01153006623297677,
        0.03760846010010131,
        0.1079504040213347,
        0.0,
        0.01554727554321289,
        0.5595909953117371,
        0.27548134326934814,
        1.0
      ],
      "name": "Retopo_Cube.001_1"
    },
    {
      "mesh": 2,
      "name": "Object_8"
    },
    {
      "children": [
        10
      ],
      "matrix": [
        1.174910068511963,
        0.0,
        0.0,
        0.0,
        0.0,
        1.2408111095428467,
        0.0,
        0.0,
        0.0,
        0.0,
        1.1028836965560913,
        0.0,
        -0.02370297908782959,
        -0.7520103454589844,
        -0.09701776504516602,
        1.0
      ],
      "name": "Retopo_Cube.004_2"
    },
    {
      "mesh": 3,
      "name": "Object_10"
    },
    {
      "children": [
        12
      ],
      "matrix": [
        -0.04600542881258808,
        -0.013801020767464187,
        -0.0013716804537159343,
        -0.0,
        -0.024490819080285577,
        0.08620058899059156,
        -0.045889321303824726,
        -0.0,
        -0.010712954378382057,
        0.029614238833505616,
        0.06134616458618031,
        -0.0,
        -0.024927973747253418,
        -0.928353488445282,
        -0.18769776821136475,
        1.0
      ],
      "name": "Retopo_Cube.012_3"
    },
    {
      "mesh": 4,
      "name": "Object_12"
    },
    {
      "children": [
        14
      ],
      "matrix": [
        0.1775883529336916,
        0.00039019919387525654,
        0.018476230895749637,
        0.0,
        -0.028647202507553142,
        0.22917219400486669,
        0.27050899787492483,
        0.0,
        -0.011725364808895081,
        -0.13793343677970324,
        0.11561393402426207,
        0.0,
        0.016997218132019043,
        0.8876347541809082,
        0.012734770774841309,
        1.0
      ],
      "name": "Retopo_Plane_4"
    },
    {
      "mesh": 5,
      "name": "Object_14"
    }
  ],
  "samplers": [
    {
      "magFilter": 9729,
      "minFilter": 9987,
      "wrapS": 10497,
      "wrapT": 10497
    }
  ],
  "scene": 0,
  "scenes": [
    {
      "name": "Sketchfab_Scene",
      "nodes": [
        0
      ]
    }
  ],
  "textures": [
    {
      "sampler": 0,
      "source": 0
    },
    {
      "sampler": 0,
      "source": 1
    },
    {
      "sampler": 0,
      "source": 2
    }
  ]
}
