{
  "accessors": [
    {
      "bufferView": 3,
      "componentType": 5126,
      "count": 12610,
      "max": [
        2.3239824771881104,
        4.5688796043396,
        1.0636138916015625
      ],
      "min": [
        -2.3239824771881104,
        -0.014851151965558529,
        -0.9728973507881165
      ],
      "type": "VEC3"
    },
    {
      "bufferView": 3,
      "byteOffset": 151320,
      "componentType": 5126,
      "count": 12610,
      "max": [
        0.9998533129692078,
        1.0,
        0.9998602271080017
      ],
      "min": [
        -0.9998533129692078,
        -0.9999873638153076,
        -0.9999608993530273
      ],
      "type": "VEC3"
    },
    {
      "bufferView": 2,
      "componentType": 5126,
      "count": 12610,
      "max": [
        0.9970699548721313,
        -0.008086999878287315
      ],
      "min": [
        0.0024979999288916588,
        -0.9946290254592896
      ],
      "type": "VEC2"
    },
    {
      "bufferView": 1,
      "componentType": 5125,
      "count": 66714,
      "type": "SCALAR"
    },
    {
      "bufferView": 5,
      "componentType": 5126,
      "count": 58,
      "max": [
        1.0,
        0.0,
        0.0019299091072753072,
        0.0,
        3.1442209946774824e-10,
        1.0,
        8.635772275056297e-08,
        0.0,
        0.5300599336624146,
        8.635774406684504e-08,
        1.0,
        0.0,
        0.27195000648498535,
        0.04851405695080757,
        0.29120495915412903,
        1.0
      ],
      "min": [
        -0.5300599336624146,
        -3.306854676388966e-17,
        -0.5300599336624146,
        0.0,
        -8.635772985599033e-08,
        0.5300599336624146,
        -8.635772275056297e-08,
        0.0,
        -0.0019299091072753072,
        0.0,
        -0.5300599336624146,
        0.0,
        -1.229909896850586,
        -2.4224400520324707,
        -1.1506799459457397,
        1.0
      ],
      "type": "MAT4"
    },
    {
      "bufferView": 0,
      "componentType": 5123,
      "count": 12610,
      "type": "VEC4"
    },
    {
      "bufferView": 4,
      "componentType": 5126,
      "count": 12610,
      "max": [
        1.0,
        0.49803900718688965,
        0.32548999786376953,
        0.18823501467704773
      ],
      "min": [
        0.3098040223121643,
        0.0,
        0.0,
        0.0
      ],
      "type": "VEC4"
    }
  ],
  "asset": {
    "extras": {
      "author": "JackTheOhio (https://sketchfab.com/ijackprovostjr)",
      "license": "CC-BY-4.0 (http://creativecommons.org/licenses/by/4.0/)",
      "source": "https://sketchfab.com/3d-models/spongebob-squarepants-patrick-101e88d1a7b04e98b1e7d9538152a37e",
      "title": "Spongebob SquarePants Patrick"
    },
    "generator": "Sketchfab-15.35.0",
    "version": "2.0"
  },
  "bufferViews": [
    {
      "buffer": 0,
      "byteLength": 100880,
      "byteStride": 8,
      "name": "shortBufferViews",
      "target": 34962
    },
    {
      "buffer": 0,
      "byteLength": 266856,
      "byteOffset": 100880,
      "name": "floatBufferViews",
      "target": 34963
    },
    {
      "buffer": 0,
      "byteLength": 100880,
      "byteOffset": 367736,
      "byteStride": 8,
      "name": "floatBufferViews",
      "target": 34962
    },
    {
      "buffer": 0,
      "byteLength": 302640,
      "byteOffset": 468616,
      "byteStride": 12,
      "name": "floatBufferViews",
      "target": 34962
    },
    {
      "buffer": 0,
      "byteLength": 201760,
      "byteOffset": 771256,
      "byteStride": 16,
      "name": "floatBufferViews",
      "target": 34962
    },
    {
      "buffer": 0,
      "byteLength": 3712,
      "byteOffset": 973016,
      "name": "floatBufferViews"
    }
  ],
  "buffers": [
    {
      "byteLength": 976728,
      "uri": "scene.bin"
    }
  ],
  "images": [
    {
      "uri": "textures/MI_Patrick_PBR_baseColor.png"
    }
  ],
  "materials": [
    {
      "doubleSided": true,
      "name": "MI_Patrick_PBR",
      "pbrMetallicRoughness": {
        "baseColorTexture": {
          "index": 0
        },
        "metallicFactor": 0.0,
        "roughnessFactor": 0.5
      }
    }
  ],
  "meshes": [
    {
      "name": "Object_0",
      "primitives": [
        {
          "attributes": {
            "JOINTS_0": 5,
            "NORMAL": 1,
            "POSITION": 0,
            "TEXCOORD_0": 2,
            "WEIGHTS_0": 6
          },
          "indices": 3,
          "material": 0,
          "mode": 4
        }
      ]
    }
  ],
  "nodes": [
    {
      "children": [
        1
      ],
      "matrix": [
        1.0,
        0.0,
        0.0,
        0.0,
        0.0,
        2.220446049250313e-16,
        -1.0,
        0.0,
        0.0,
        1.0,
        2.220446049250313e-16,
        0.0,
        0.0,
        0.0,
        0.0,
        1.0
      ],
      "name": "Sketchfab_model"
    },
    {
      "children": [
        2
      ],
      "name": "root"
    },
    {
      "children": [
        3
      ],
      "matrix": [
        1.0,
        0.0,
        0.0,
        0.0,
        0.0,
        2.220446049250313e-16,
        1.0,
        0.0,
        0.0,
        -1.0,
        2.220446049250313e-16,
        0.0,
        0.0,
        0.0,
        0.0,
        1.0
      ],
      "name": "GLTF_SceneRootNode"
    },
    {
      "children": [
        4
      ],
      "matrix": [
        1.886579155921936,
        0.0,
        0.0,
        0.0,
        0.0,
        -3.180534690020783e-07,
        1.8865791559219092,
        0.0,
        0.0,
        -1.8865791559219092,
        -3.180534690020783e-07,
        0.0,
        0.0,
        0.0,
        0.0,
        1.0
      ],
      "name": "Armature_59"
    },
    {
      "children": [
        5,
        7,
        6
      ],
      "name": "GLTF_created_0"
    },
    {
      "children": [
        8
      ],
      "name": "GLTF_created_0_rootJoint"
    },
    {
      "name": "SK_Patrick_mo_58"
    },
    {
      "mesh": 0,
      "name": "Object_7",
      "skin": 0
    },
    {
      "children": [
        9
      ],
      "name": "SK_Patrick_ao_57",
      "rotation": [
        -0.7071068286895752,
        0.0,
        0.0,
        0.7071068286895752
      ]
    },
    {
      "children": [
        10,
        63
      ],
      "name": "jt_root_56"
    },
    {
      "children": [
        11,
        55,
        59
      ],
      "name": "jt_hip_53",
      "translation": [
        0.0,
        0.504347026348114,
        0.0
      ]
    },
    {
      "children": [
        12,
        54
      ],
      "name": "jt_spine_44",
      "translation": [
        0.0,
        0.252252995967865,
        0.026304999366402626
      ]
    },
    {
      "children": [
        13
      ],
      "name": "jt_spine1_42",
      "translation": [
        0.0,
        0.22802501916885376,
        -0.00994499959051609
      ]
    },
    {
      "children": [
        14,
        19,
        49
      ],
      "name": "jt_spine2_41",
      "translation": [
        0.0,
        0.1825149655342102,
        -0.016359999775886536
      ]
    },
    {
      "children": [
        15
      ],
      "name": "jt_shoulder_L_5",
      "translation": [
        0.29816898703575134,
        0.04575002193450928,
        -0.052420999854803085
      ]
    },
    {
      "children": [
        16
      ],
      "name": "jt_arm_L_4",
      "translation": [
        0.17553701996803284,
        0.0,
        0.0
      ]
    },
    {
      "children": [
        17
      ],
      "name": "jt_forearm_L_3",
      "translation": [
        0.2779809832572937,
        0.0,
        0.0
      ]
    },
    {
      "children": [
        18
      ],
      "name": "jt_hand_L_2",
      "translation": [
        0.3094729781150818,
        0.0,
        0.0
      ]
    },
    {
      "name": "jt_hand_end_L_1",
      "translation": [
        0.16875004768371582,
        -0.013490080833435059,
        0.0
      ]
    },
    {
      "children": [
        20,
        44
      ],
      "name": "jt_neck_35",
      "translation": [
        0.0,
        0.2285299301147461,
        0.010900000110268593
      ]
    },
    {
      "children": [
        21,
        24,
        25,
        26,
        27,
        28,
        32,
        36,
        40
      ],
      "name": "jt_head_29",
      "translation": [
        0.0,
        0.2111300230026245,
        0.0007119998335838318
      ]
    },
    {
      "children": [
        22
      ],
      "name": "jt_head1_8",
      "translation": [
        0.0,
        0.291890025138855,
        -0.03579600155353546
      ]
    },
    {
      "children": [
        23
      ],
      "name": "jt_head2_7",
      "translation": [
        0.0,
        0.2279798984527588,
        -0.003734000027179718
      ]
    },
    {
      "name": "jt_head3_6",
      "translation": [
        0.0,
        0.29577016830444336,
        -0.008731001988053322
      ]
    },
    {
      "name": "jt_eye_L_9",
      "translation": [
        0.10018400102853775,
        0.02381002902984619,
        0.27959299087524414
      ]
    },
    {
      "name": "jt_eyebrow_L_10",
      "translation": [
        0.09869299829006195,
        0.26677000522613525,
        0.1578890085220337
      ]
    },
    {
      "name": "jt_eye_R_11",
      "rotation": [
        0.0,
        -1.0,
        0.0,
        7.549790126404332e-08
      ],
      "translation": [
        -0.10018400102853775,
        0.02381002902984619,
        0.27959299087524414
      ]
    },
    {
      "name": "jt_eyebrow_R_12",
      "rotation": [
        0.0,
        -1.0,
        0.0,
        7.549790126404332e-08
      ],
      "translation": [
        -0.09869299829006195,
        0.26677000522613525,
        0.15789100527763367
      ]
    },
    {
      "children": [
        29
      ],
      "name": "jt_eyelid_DW_R_16",
      "translation": [
        -0.10722599923610687,
        -0.1333465576171875,
        0.21641838550567627
      ]
    },
    {
      "children": [
        30
      ],
      "name": "jt_eyelid_DW1_R_15",
      "translation": [
        -0.00040599703788757324,
        0.00957643985748291,
        -0.0016039013862609863
      ]
    },
    {
      "children": [
        31
      ],
      "name": "jt_eyelid_DW2_R_14",
      "translation": [
        -0.0004970058798789978,
        0.011727333068847656,
        -0.0019642412662506104
      ]
    },
    {
      "name": "jt_eyelid_DW3_R_13",
      "translation": [
        -0.0008969977498054504,
        0.021185755729675293,
        -0.00354786217212677
      ]
    },
    {
      "children": [
        33
      ],
      "name": "jt_eyelid_UP_R_20",
      "translation": [
        -0.09033100306987762,
        0.1799912452697754,
        0.17120426893234253
      ]
    },
    {
      "children": [
        34
      ],
      "name": "jt_eyelid_UP1_R_19",
      "translation": [
        0.0,
        -0.0059517621994018555,
        0.0009032785892486572
      ]
    },
    {
      "children": [
        35
      ],
      "name": "jt_eyelid_UP2_R_18",
      "translation": [
        -1.4901161193847656e-08,
        -0.006080150604248047,
        0.0009245425462722778
      ]
    },
    {
      "name": "jt_eyelid_UP3_R_17",
      "translation": [
        0.0,
        -0.01691591739654541,
        0.002570033073425293
      ]
    },
    {
      "children": [
        37
      ],
      "name": "jt_eyelid_DW_L_24",
      "translation": [
        0.10722599923610687,
        -0.133713960647583,
        0.21678434312343597
      ]
    },
    {
      "children": [
        38
      ],
      "name": "jt_eyelid_DW1_L_23",
      "translation": [
        6.400048732757568e-05,
        0.009572148323059082,
        -0.001696854829788208
      ]
    },
    {
      "children": [
        39
      ],
      "name": "jt_eyelid_DW2_L_22",
      "translation": [
        7.800012826919556e-05,
        0.011719346046447754,
        -0.00207693874835968
      ]
    },
    {
      "name": "jt_eyelid_DW3_L_21",
      "translation": [
        0.00014100223779678345,
        0.021173954010009766,
        -0.0037514567375183105
      ]
    },
    {
      "children": [
        41
      ],
      "name": "jt_eyelid_UP_L_28",
      "rotation": [
        0.0,
        0.001820212579332292,
        0.0,
        0.9999983310699463
      ],
      "translation": [
        0.09033115953207016,
        0.1800011396408081,
        0.1712033450603485
      ]
    },
    {
      "children": [
        42
      ],
      "name": "jt_eyelid_UP1_L_27",
      "rotation": [
        0.0,
        1.1641532182693481e-10,
        0.0,
        1.0
      ],
      "translation": [
        0.0003541638143360615,
        -0.005922675132751465,
        0.0010752794332802296
      ]
    },
    {
      "children": [
        43
      ],
      "name": "jt_eyelid_UP2_L_26",
      "rotation": [
        0.0,
        2.534361556172371e-07,
        0.0,
        1.0
      ],
      "translation": [
        0.00036236841697245836,
        -0.006039977073669434,
        0.0010978919453918934
      ]
    },
    {
      "name": "jt_eyelid_UP3_L_25",
      "translation": [
        0.0010049052070826292,
        -0.016804933547973633,
        0.0030539578292518854
      ]
    },
    {
      "children": [
        45
      ],
      "name": "jt_tongue_0_34",
      "rotation": [
        0.0,
        -0.7071068286895752,
        0.0,
        0.7071068286895752
      ],
      "scale": [
        1.0,
        0.9999999403953552,
        1.0
      ],
      "translation": [
        8.141880535844328e-17,
        -0.06868720054626465,
        0.01797344721853733
      ]
    },
    {
      "children": [
        46
      ],
      "name": "jt_tongue_1_33",
      "translation": [
        0.0798477903008461,
        0.03114914894104004,
        -3.4902583045948177e-09
      ]
    },
    {
      "children": [
        47
      ],
      "name": "jt_tongue_2_32",
      "translation": [
        0.0789731964468956,
        -0.003504633903503418,
        -3.4520279967864553e-09
      ]
    },
    {
      "children": [
        48
      ],
      "name": "jt_tongue_3_31",
      "translation": [
        0.07589860260486603,
        -0.0351027250289917,
        -3.317632391031111e-09
      ]
    },
    {
      "name": "jt_tongue_4_30",
      "rotation": [
        0.0,
        0.7071068286895752,
        0.0,
        0.7071068286895752
      ],
      "scale": [
        1.0,
        0.9999999403953552,
        1.0
      ],
      "translation": [
        0.015357941389083862,
        -0.012724518775939941,
        -6.713163358540442e-10
      ]
    },
    {
      "children": [
        50
      ],
      "name": "jt_shoulder_R_40",
      "rotation": [
        0.0,
        -1.0,
        0.0,
        7.549790126404332e-08
      ],
      "translation": [
        -0.29816898703575134,
        0.04575002193450928,
        -0.0524199977517128
      ]
    },
    {
      "children": [
        51
      ],
      "name": "jt_arm_R_39",
      "rotation": [
        0.0,
        -3.178651297730539e-08,
        0.0,
        1.0
      ],
      "translation": [
        0.17553700506687164,
        0.0,
        1.0289272722729947e-06
      ]
    },
    {
      "children": [
        52
      ],
      "name": "jt_forearm_R_38",
      "translation": [
        0.2779809832572937,
        0.0,
        2.4736372949973884e-08
      ]
    },
    {
      "children": [
        53
      ],
      "name": "jt_hand_R_37",
      "translation": [
        0.3094729781150818,
        0.0,
        2.5714328444337298e-08
      ]
    },
    {
      "name": "jt_hand_end_R_36",
      "translation": [
        0.16875004768371582,
        -0.013490080833435059,
        1.4389890168331476e-08
      ]
    },
    {
      "name": "jt_belly_43",
      "translation": [
        0.0,
        -0.028885960578918457,
        0.5245620012283325
      ]
    },
    {
      "children": [
        56
      ],
      "name": "jt_leg_L_48",
      "translation": [
        0.2719499468803406,
        -0.15728220343589783,
        0.0
      ]
    },
    {
      "children": [
        57
      ],
      "name": "jt_knee_L_47",
      "translation": [
        5.960464477539063e-08,
        -0.1785137951374054,
        0.0071310000494122505
      ]
    },
    {
      "children": [
        58
      ],
      "name": "jt_foot_L_46",
      "translation": [
        0.0,
        -0.1685509979724884,
        -0.0071310000494122505
      ]
    },
    {
      "name": "jt_foot_end_L_45",
      "translation": [
        0.0,
        -0.048513997346162796,
        0.0
      ]
    },
    {
      "children": [
        60
      ],
      "name": "jt_leg_R_52",
      "translation": [
        -0.27195003628730774,
        -0.1572818160057068,
        0.0
      ]
    },
    {
      "children": [
        61
      ],
      "name": "jt_knee_R_51",
      "translation": [
        5.364418029785156e-07,
        -0.17851300537586212,
        0.007131168618798256
      ]
    },
    {
      "children": [
        62
      ],
      "name": "jt_foot_R_50",
      "translation": [
        1.4901161193847656e-06,
        -0.1685527265071869,
        -0.007131168618798256
      ]
    },
    {
      "name": "jt_foot_end_R_49",
      "translation": [
        2.086162567138672e-07,
        -0.048513539135456085,
        -6.791944997530663e-07
      ]
    },
    {
      "children": [
        64
      ],
      "name": "jt_attach_obj_55",
      "translation": [
        0.0,
        0.5517740249633789,
        1.1506799459457397
      ]
    },
    {
      "name": "jt_attach_obj_end_54",
      "translation": [
        0.0,
        0.12561899423599243,
        0.0
      ]
    }
  ],
  "samplers": [
    {
      "magFilter": 9729,
      "minFilter": 9987,
      "wrapS": 10497,
      "wrapT": 10497
    }
  ],
  "scene": 0,
  "scenes": [
    {
      "name": "Sketchfab_Scene",
      "nodes": [
        0
      ]
    }
  ],
  "skins": [
    {
      "inverseBindMatrices": 4,
      "joints": [
        5,
        8,
        9,
        10,
        11,
        12,
        13,
        14,
        15,
        16,
        17,
        18,
        19,
        20,
        21,
        22,
        23,
        24,
        25,
        26,
        27,
        28,
        29,
        30,
        31,
        32,
        33,
        34,
        35,
        36,
        37,
        38,
        39,
        40,
        41,
        42,
        43,
        44,
        45,
        46,
        47,
        48,
        49,
        50,
        51,
        52,
        53,
        54,
        55,
        56,
        57,
        58,
        59,
        60,
        61,
        62,
        63,
        64
      ],
      "skeleton": 5
    }
  ],
  "textures": [
    {
      "sampler": 0,
      "source": 0
    }
  ]
}
